<svg xmlns="http://www.w3.org/2000/svg" xmlns:xlink="http://www.w3.org/1999/xlink" width="500" zoomAndPan="magnify" viewBox="0 0 375 374.999991" height="500" preserveAspectRatio="xMidYMid meet" version="1.0"><defs><clipPath id="5293d41d71"><path d="M 114 6 L 275.984375 6 L 275.984375 252.171875 L 114 252.171875 Z M 114 6 " clip-rule="nonzero"/></clipPath></defs><path fill="#3cc793" d="M 261.730469 119.699219 C 278.0625 129.789062 281.90625 158.769531 283.347656 189.195312 C 284.949219 219.617188 284.308594 251.644531 267.976562 276.140625 C 251.644531 300.640625 219.617188 317.613281 194.320312 311.050781 C 168.859375 304.324219 150.125 274.0625 126.746094 249.5625 C 103.207031 225.0625 75.023438 206.328125 74.386719 186.953125 C 73.746094 167.738281 100.804688 147.722656 124.183594 137.632812 C 147.722656 127.546875 167.738281 127.386719 192.078125 122.902344 C 216.414062 118.417969 245.398438 109.613281 261.730469 119.699219 Z M 261.730469 119.699219 " fill-opacity="1" fill-rule="nonzero"/><g clip-path="url(#5293d41d71)"><path fill="#000000" d="M 143.3125 82.789062 C 147.511719 82.4375 151.257812 82.136719 155.199219 82.457031 C 155.273438 85.78125 155.382812 89.101562 155.578125 92.40625 C 155.71875 94.710938 157.84375 96.195312 158.03125 93.054688 C 158.234375 89.671875 158.351562 86.277344 158.421875 82.875 C 158.820312 82.941406 159.214844 83 159.621094 83.085938 C 160.457031 83.253906 161.34375 83.382812 162.246094 83.457031 C 162.308594 85.878906 162.398438 88.296875 162.558594 90.703125 C 162.675781 92.476562 164.25 93.660156 164.414062 91.210938 C 164.589844 88.65625 164.679688 86.09375 164.75 83.53125 C 166.945312 83.464844 169.136719 83.0625 171.011719 82.128906 C 176.660156 79.316406 176.550781 72.984375 173.367188 68.214844 C 171.375 65.21875 168.148438 64.230469 164.566406 63.867188 C 164.464844 60.964844 164.351562 58.058594 164.238281 55.15625 C 167.183594 55.832031 170.011719 57.089844 172.097656 58.90625 C 172.476562 59.234375 173.132812 56.511719 172.300781 56.03125 C 169.710938 54.539062 166.953125 53.066406 164.117188 52.011719 C 164.050781 50.285156 163.992188 48.558594 163.9375 46.839844 C 163.898438 45.710938 163.113281 44.878906 163.0625 46.492188 C 163.007812 48.183594 162.949219 49.882812 162.882812 51.582031 C 161.183594 51.035156 159.460938 50.644531 157.730469 50.515625 C 157.613281 48.230469 157.488281 45.949219 157.359375 43.675781 C 157.28125 42.390625 156.40625 41.425781 156.292969 43.277344 C 156.148438 45.679688 156.019531 48.082031 155.890625 50.492188 C 153.429688 50.585938 150.96875 51.246094 148.550781 52.730469 C 144.585938 55.171875 143.582031 63.328125 147.210938 66.496094 C 149.511719 68.503906 152.25 69.226562 155.183594 69.597656 C 155.144531 71.890625 155.132812 74.179688 155.132812 76.464844 C 150.988281 75.925781 146.980469 75.960938 142.945312 77.886719 C 141.925781 78.371094 142.035156 82.894531 143.3125 82.789062 Z M 116.761719 100.453125 L 114.320312 34.003906 C 114.320312 34.003906 124.304688 34.945312 129.5 34.773438 C 137.585938 34.507812 145.753906 34.960938 153.84375 35.105469 C 168.503906 35.367188 183.070312 34.949219 197.6875 35.757812 C 197.796875 44.714844 197.847656 53.640625 197.582031 62.636719 C 197.238281 74.203125 198.5625 88.03125 195.652344 99.539062 C 191.222656 98.667969 186.652344 98.980469 182.148438 98.972656 C 178.699219 98.960938 175.132812 98.929688 171.648438 99.304688 C 160.894531 98.75 150.140625 98.734375 139.304688 99.183594 C 131.691406 98.976562 116.761719 100.453125 116.761719 100.453125 Z M 153.6875 169.441406 C 157.488281 167.851562 158.128906 165.503906 157.539062 162.941406 C 158.5625 158.914062 156.589844 154.464844 154.921875 150.5625 C 153.628906 147.9375 152.285156 145.347656 151.234375 142.789062 C 149.785156 139.265625 148.8125 134.273438 147.101562 130 C 146.464844 128.851562 145.886719 127.679688 145.363281 126.480469 C 144.582031 125.214844 143.675781 124.101562 142.574219 123.253906 C 137.515625 119.34375 129.550781 117.359375 124.996094 123.523438 C 118.453125 132.371094 124.511719 143.296875 129.425781 150.882812 C 129.433594 150.894531 129.4375 150.925781 129.445312 150.941406 C 133.695312 154.976562 136.460938 161.777344 140.539062 165.40625 C 143.894531 168.390625 149.027344 171.390625 153.6875 169.441406 Z M 267.691406 146.175781 C 262.851562 143.566406 257.503906 142.40625 252.171875 143.035156 C 244.78125 145.015625 238.089844 147.785156 233.789062 150.160156 C 228.417969 153.125 227.027344 159.097656 221.445312 161.8125 C 217.75 163.613281 213.1875 162.957031 209.273438 163.785156 C 200.882812 165.550781 192.777344 170.820312 189.09375 178.71875 C 188.050781 180.953125 187.296875 182.734375 185.300781 184.214844 C 184.464844 184.828125 184.546875 181.910156 184.765625 181.507812 C 187.410156 176.6875 187.957031 171.085938 192.078125 167.136719 C 196.667969 162.734375 202.570312 158.25 209.113281 157.398438 C 212.675781 156.941406 216.214844 156.484375 219.550781 155.488281 C 222.105469 154.726562 226.339844 150.960938 226.304688 150.3125 C 224.589844 120.332031 224.839844 89.976562 224.210938 59.9375 C 223.941406 47.28125 228.351562 22.050781 217.277344 12.417969 C 214.847656 12.085938 212.4375 11.972656 209.992188 12.339844 C 199.496094 17.753906 201.308594 28.21875 201.273438 39.417969 C 201.25 47.738281 201.179688 56.066406 200.929688 64.386719 C 200.535156 77.21875 202.019531 91.515625 198.589844 104.097656 C 197.621094 104.210938 196.648438 104.335938 195.679688 104.453125 C 195.675781 104.414062 195.675781 104.375 195.671875 104.339844 C 190.789062 105.125 185.605469 104.765625 180.691406 104.660156 C 177.460938 104.589844 174.230469 104.574219 171.046875 104.164062 C 171.78125 104.90625 172.4375 105.738281 173.058594 106.617188 C 178.476562 112.628906 179.535156 121.027344 182.480469 128.507812 C 184.023438 132.429688 185.820312 136.472656 186.980469 140.59375 C 189.570312 146.4375 191.464844 153.679688 187.304688 157.625 C 185.601562 162.175781 181.738281 164.816406 174.503906 162.566406 C 164.871094 159.566406 160.484375 150.023438 155.15625 142.167969 C 154.515625 141.21875 153.859375 140.285156 153.199219 139.347656 C 156.65625 146.601562 160.648438 153.800781 160.832031 161.820312 C 160.84375 162.320312 160.78125 162.78125 160.6875 163.1875 C 160.808594 164.773438 160.773438 166.351562 160.433594 167.84375 C 160.324219 172.433594 158.21875 176.089844 152.113281 176.335938 C 150.230469 176.40625 148.472656 176.101562 146.796875 175.546875 C 151.300781 184.363281 151.25 194.339844 150.886719 204.523438 C 150.308594 220.464844 150.84375 236.773438 146.542969 252.269531 C 159.585938 249.636719 174.101562 251.203125 187.347656 251.195312 C 200.785156 251.1875 214.261719 250.726562 227.691406 250.96875 C 226.230469 236.296875 223.921875 221.753906 222.398438 207.089844 C 221.570312 199.078125 221.28125 189.769531 226.070312 182.925781 C 231.25 175.515625 241.976562 170.914062 251.035156 167.375 C 259.265625 162.664062 268.035156 158.929688 275.679688 153.242188 C 273.625 150.203125 270.464844 147.671875 267.691406 146.175781 Z M 155.65625 55.140625 C 151.539062 56.386719 143.789062 59.882812 149.722656 62.378906 C 151.378906 63.070312 153.300781 63.359375 155.332031 63.496094 C 155.421875 60.707031 155.527344 57.921875 155.65625 55.140625 Z M 143.96875 118.632812 C 145.800781 120.914062 147.050781 123.722656 148.183594 126.753906 C 150.578125 130.113281 153.367188 133.269531 155.6875 136.492188 C 159.199219 141.367188 162.207031 146.804688 166.457031 151.097656 C 169.878906 154.554688 175.128906 157.171875 180.1875 156.542969 C 187.238281 155.65625 186.953125 149.324219 185.421875 143.785156 C 183.554688 140 181.710938 136.210938 180.203125 132.234375 C 178.226562 127.015625 174.753906 113.753906 170.882812 110.242188 C 166.460938 106.238281 161.285156 104.113281 155.335938 106.050781 C 149.332031 108.011719 143.511719 112 143.96875 118.632812 Z M 268.449219 98.8125 C 268.449219 98.8125 268.46875 76.382812 268.542969 65.261719 C 268.601562 55.589844 269.152344 36.121094 269.152344 36.121094 C 269.152344 36.121094 242.507812 36.046875 228.203125 35.421875 C 228.25 41.1875 228.425781 46.996094 227.984375 52.730469 C 227.832031 54.695312 227.605469 56.636719 227.363281 58.578125 C 227.335938 64.304688 227.136719 70.035156 226.945312 75.765625 C 227.34375 83.691406 227.8125 91.621094 228.238281 99.554688 C 240.933594 97.675781 268.449219 98.8125 268.449219 98.8125 Z M 196.273438 29.816406 C 196.238281 29.636719 196.207031 29.445312 196.179688 29.226562 C 195.199219 21.363281 195.820312 4.722656 183.785156 6.167969 C 174.703125 7.265625 174.691406 20.316406 173.835938 29.503906 C 181.398438 29.144531 189.023438 28.898438 196.273438 29.816406 Z M 162.421875 63.710938 C 162.523438 60.761719 162.640625 57.808594 162.757812 54.863281 C 161.117188 54.605469 159.476562 54.53125 157.933594 54.65625 C 158.074219 57.636719 158.191406 60.625 158.285156 63.613281 C 159.664062 63.640625 161.054688 63.652344 162.421875 63.710938 Z M 158.488281 76.992188 C 158.820312 77.054688 159.148438 77.109375 159.472656 77.167969 C 160.25 77.308594 161.179688 77.433594 162.160156 77.527344 C 162.160156 74.992188 162.191406 72.453125 162.246094 69.910156 C 160.976562 69.902344 159.707031 69.875 158.4375 69.828125 C 158.476562 72.21875 158.492188 74.605469 158.488281 76.992188 Z M 164.824219 77.664062 C 164.824219 75.152344 164.800781 72.636719 164.742188 70.125 C 168.078125 70.695312 174.996094 72.425781 172.8125 75.050781 C 171.128906 77.082031 167.914062 77.664062 164.824219 77.664062 " fill-opacity="1" fill-rule="nonzero"/></g></svg>